<svg xmlns="http://www.w3.org/2000/svg" width="30.454" height="28.703" viewBox="0 0 30.454 28.703">
  <g id="noun_Map_3761965" transform="translate(-157.999 430.893)">
    <g id="Grupo_146" data-name="Grupo 146" transform="translate(158 -432.723)">
      <path id="Trazado_107" data-name="Trazado 107" d="M46.313,13.461A3.211,3.211,0,1,0,43.1,16.673,3.21,3.21,0,0,0,46.313,13.461Zm-5.219,0A2.008,2.008,0,1,1,43.1,15.469,2.008,2.008,0,0,1,41.094,13.461Z" transform="translate(-20.912 -4.414)"/>
      <path id="Trazado_108" data-name="Trazado 108" d="M30.406,29.7,25.667,18.349l2.95-4.548a.636.636,0,0,0,.076-.186,9.647,9.647,0,0,0,1.08-4.187A7.59,7.59,0,0,0,22.2,1.83h0a7.6,7.6,0,0,0-7.6,7.579,7.227,7.227,0,0,0,1.109,3.9.187.187,0,0,0,.038.067l2.074,3.511H5.923a.6.6,0,0,0-.552.366L.047,29.7a.6.6,0,0,0,.319.79.59.59,0,0,0,.238.048H29.849a.609.609,0,0,0,.6-.609A.723.723,0,0,0,30.406,29.7ZM16.847,12.873a.741.741,0,0,0-.076-.133h-.014a6.023,6.023,0,0,1-.971-3.33,6.394,6.394,0,0,1,12.789,0v.019a8.589,8.589,0,0,1-1.013,3.782v.038l-5.5,8.454ZM1.513,29.339,6.318,18.092H7.645c.219,1.242,1.342,1.737,2.189,2.108a2.551,2.551,0,0,1,1.023.623c.2.333.1.557-.376,1.2a2.508,2.508,0,0,0-.6,2.407c.585,1.556,3.535,1.965,6.77,2.279.58.052,1.075.1,1.389.157a4.079,4.079,0,0,1,3.478,2.469Zm21.267,0c-.2-.8-1.066-3.073-4.539-3.659-.352-.062-.871-.114-1.475-.167-1.608-.157-5.386-.523-5.757-1.5-.143-.376.029-.68.457-1.27a2.168,2.168,0,0,0,.438-2.526A3.2,3.2,0,0,0,10.3,19.091c-.8-.343-1.247-.59-1.423-1h9.406a.683.683,0,0,0,.219-.038l3.021,5.1a.588.588,0,0,0,1.009.019l2.327-3.587,4.063,9.758Z" transform="translate(0 0)"/>
    </g>
  </g>
</svg>
